<svg xmlns="http://www.w3.org/2000/svg" viewBox="0 0 533 558"><defs><style>.st0{fill:#003755}.st1{fill:#fff}.st2{fill:#8cf545}</style></defs><path class="st0" d="M512.4,523.5l-190.8,34.4c-37.1,0-73.2,0-110.3,0l-190.8-34.4c-7.8-9.3-12.8-15.3-20.6-24.6V25L25,0h483c9.8,9.8,15.2,15.2,25,25v473.9c-7.8,9.3-12.8,15.3-20.6,24.6Z"/><g><g><path class="st1" d="M69.6,95.9h40.5l3.4,68.7h4.4l3-68.7h28.9l3,68.7h4.4l3.4-68.7h40.5l-14,98h-46.3l-2.9-56.8h-4.1l-2.1,56.8h-48.1l-14-98Z"/><path class="st1" d="M204.9,95.9h67.7l3.7,34.7h-32.6v9.3h23.5v11h-23.5v8.2h32.6l-3.7,34.7h-67.7v-98Z"/><path class="st1" d="M324.3,94.1c33.2,0,43.6,15.7,46.9,43.9l-37.8,3c-1.2-9-3.4-14.8-8.2-14.8s-7,3.8-7,9.9v4.9c14.9,1.8,37.5,4.4,47.4,5.5,2.9,4.7,4.6,13.9,4.6,20.1,0,18.4-13.7,29.1-44.8,29.1s-42.5-11-45.6-38.7l38.5-2.4c.8,2.4,1.1,11,8.1,11s6.1-4.4,6.1-7.9v-5.6c-22.4-2.3-40.1-4.6-51-5.8-2-37,8.1-52.1,42.8-52.1Z"/><path class="st1" d="M378.6,95.9h81.2l3.7,34.7h-24.8v63.2h-38.9v-63.2h-24.8l3.7-34.7Z"/></g><g><path class="st1" d="M69.6,219.2h52.1l4.3,88.3h5.7l3.9-88.3h37.2l3.9,88.3h5.7l4.3-88.3h52.1l-18,125.9h-59.5l-3.7-73h-5.3l-2.7,73h-61.9l-18-125.9Z"/><path class="st1" d="M300.8,345.1l-1-21.9h-13.9l-1,21.9h-52.1l20.4-125.9h79.5l20.4,125.9h-52.3ZM299.2,308.3l-2.3-51.5h-7.6l-2.3,51.5h12.3Z"/><path class="st1" d="M441.1,307.7h-11.7v37.4h-49.9v-37.4h-11.9l-22.3-88.5h52.1l4.3,57.9h5.7l3.9-57.9h52.3l-22.3,88.5Z"/></g><g><path class="st2" d="M72.6,370.2h68.2l3.1,29.2h-20.8v53.1h-32.6v-53.1h-20.8l3.1-29.2Z"/><path class="st2" d="M148.5,370.2h35.6c29.8,0,42.5,11.5,42.5,25.7s-22.6,21.2-31.8,22v2.8h20.8l12.7,31.7h-36.1l-11.6-28.4h-3.1l5.1,28.4h-34v-82.2ZM180.9,410.1c1.4.1,2.9.1,3.8.1,6.5,0,9.7-2.3,9.7-6.6s-3.2-6.5-9.7-6.5-2.4,0-3.8.1v12.9Z"/><path class="st2" d="M231.2,370.2h32.1c-.1.8-.1,49.5-.1,50.5,0,5.9,1.3,7.7,4.9,7.7s4.7-1.8,4.7-7.7,0-49.7-.1-50.5h32.1v49.9c0,24.6-10.1,33.9-36.7,33.9s-36.8-10.1-36.8-33.9v-49.9Z"/><path class="st2" d="M346.7,368.6c27.9,0,36.6,13.2,39.4,36.8l-31.7,2.6c-1-7.5-2.8-12.4-6.9-12.4s-5.9,3.2-5.9,8.3v4.1c12.5,1.5,31.5,3.7,39.8,4.6,2.4,4,3.8,11.6,3.8,16.9,0,15.5-11.5,24.4-37.6,24.4s-35.7-9.2-38.2-32.5l32.4-2c.6,2,.9,9.2,6.8,9.2s5.1-3.7,5.1-6.6v-4.7c-18.8-1.9-33.6-3.8-42.8-4.9-1.7-31.1,6.8-43.7,35.9-43.7Z"/><path class="st2" d="M392.2,370.2h68.2l3.1,29.2h-20.8v53.1h-32.6v-53.1h-20.8l3.1-29.2Z"/></g></g></svg>
